HIERARCHY
ROOT Hips
{
	OFFSET -0.001795 -0.223333 0.028219
	CHANNELS 6 Xposition Yposition Zposition Zrotation Yrotation Xrotation 
	JOINT LeftUpLeg
	{
		OFFSET 0.069520 -0.091406 -0.006815
		CHANNELS 3 Zrotation Yrotation Xrotation
		JOINT LeftLeg
		{
			OFFSET 0.034277 -0.375199 -0.004496
			CHANNELS 3 Zrotation Yrotation Xrotation
			JOINT LeftFoot
			{
				OFFSET -0.013596 -0.397961 -0.043693
				CHANNELS 3 Zrotation Yrotation Xrotation
				JOINT LeftToe
				{
					OFFSET 0.026358 -0.055791 0.119288
					CHANNELS 3 Zrotation Yrotation Xrotation
					End Site
					{
						OFFSET 0.000000 0.000000 0.000000
					}
				}
			}
		}
	}
	JOINT RightUpLeg
	{
		OFFSET -0.067670 -0.090522 -0.004320
		CHANNELS 3 Zrotation Yrotation Xrotation
		JOINT RightLeg
		{
			OFFSET -0.038290 -0.382569 -0.008850
			CHANNELS 3 Zrotation Yrotation Xrotation
			JOINT RightFoot
			{
				OFFSET 0.015774 -0.398415 -0.042312
				CHANNELS 3 Zrotation Yrotation Xrotation
				JOINT RightToe
				{
					OFFSET -0.025372 -0.048144 0.123348
					CHANNELS 3 Zrotation Yrotation Xrotation
					End Site
					{
						OFFSET 0.000000 0.000000 0.000000
					}
				}
			}
		}
	}
	JOINT Spine
	{
		OFFSET -0.002533 0.108963 -0.026696
		CHANNELS 3 Zrotation Yrotation Xrotation
		JOINT Spine1
		{
			OFFSET 0.005487 0.135180 0.001092
			CHANNELS 3 Zrotation Yrotation Xrotation
			JOINT Spine2
			{
				OFFSET 0.001457 0.052922 0.025425
				CHANNELS 3 Zrotation Yrotation Xrotation
				JOINT Neck
				{
					OFFSET -0.002778 0.213870 -0.042857
					CHANNELS 3 Zrotation Yrotation Xrotation
					JOINT Head
					{
						OFFSET 0.005152 0.064970 0.051349
						CHANNELS 3 Zrotation Yrotation Xrotation
						End Site
						{
							OFFSET 0.000000 0.000000 0.000000
						}
					}
				}
				JOINT LeftShoulder
				{
					OFFSET 0.078845 0.121749 -0.034090
					CHANNELS 3 Zrotation Yrotation Xrotation
					JOINT LeftArm
					{
						OFFSET 0.090977 0.030469 -0.008868
						CHANNELS 3 Zrotation Yrotation Xrotation
						JOINT LeftForeArm
						{
							OFFSET 0.259612 -0.012772 -0.027456
							CHANNELS 3 Zrotation Yrotation Xrotation
							JOINT LeftHand
							{
								OFFSET 0.249234 0.008986 -0.001171
								CHANNELS 3 Zrotation Yrotation Xrotation
								End Site
								{
									OFFSET 0.000000 0.000000 0.000000
								}
							}
						}
					}
				}
				JOINT RightShoulder
				{
					OFFSET -0.081759 0.118833 -0.038615
					CHANNELS 3 Zrotation Yrotation Xrotation
					JOINT RightArm
					{
						OFFSET -0.096012 0.032551 -0.009143
						CHANNELS 3 Zrotation Yrotation Xrotation
						JOINT RightForeArm
						{
							OFFSET -0.253742 -0.013329 -0.021401
							CHANNELS 3 Zrotation Yrotation Xrotation
							JOINT RightHand
							{
								OFFSET -0.255298 0.007772 -0.005559
								CHANNELS 3 Zrotation Yrotation Xrotation
								End Site
								{
									OFFSET 0.000000 0.000000 0.000000
								}
							}
						}
					}
				}
			}
		}
	}
}
MOTION
Frames: 15
Frame Time: 0.050000
0.000000 0.952719 0.000000 -1.055951 -2.530147 0.108102 -0.220576 0.448735 4.641351 0.609010 -0.036126 -0.863363 1.048927 3.144190 2.414956 0.000000 0.000000 0.000000 -0.548937 0.501103 -5.124753 0.392708 0.259247 7.622362 -1.169655 -4.162179 2.605669 0.000000 0.000000 0.000000 4.239029 -0.120077 1.105171 -1.686660 0.811583 -1.197500 -2.220680 1.886025 9.836648 5.002929 -1.582105 -18.645852 0.000000 0.000000 0.000000 -23.782932 -1.824009 -1.367244 -52.741670 -1.960462 -5.866519 -7.865307 -22.921233 2.486536 0.000000 0.000000 0.000000 20.239112 -2.158737 -2.715965 54.602841 0.819611 -5.477794 14.192635 31.681070 5.084026 0.000000 0.000000 0.000000 
-0.006941 0.950768 0.009254 -1.053226 -2.366707 0.797983 0.351421 0.441940 4.891003 0.303564 0.033906 -1.883383 1.716746 4.172495 1.451318 0.000000 0.000000 0.000000 0.148821 0.538968 -5.378641 0.530126 0.255803 8.145769 -1.580750 -4.327795 0.724685 0.000000 0.000000 0.000000 4.737016 -0.037516 -0.132147 -1.846405 0.886125 0.543114 -2.620915 1.607842 8.982204 4.731579 -1.194644 -20.446756 0.000000 0.000000 0.000000 -23.592849 -1.468274 -1.566553 -53.653135 -2.295839 -5.737189 -6.586436 -23.010566 2.235456 0.000000 0.000000 0.000000 20.011204 -2.267087 -2.798996 55.677507 1.157886 -5.329229 13.771339 32.368896 5.076745 0.000000 0.000000 0.000000 
-0.014844 0.949440 0.018610 -0.388312 -2.575421 1.076943 -0.053076 0.413370 4.351816 0.336221 -0.025238 -0.361086 1.761816 3.973869 0.593523 0.000000 0.000000 0.000000 0.759638 0.586643 -5.734348 0.079828 0.392587 9.388869 -2.072044 -5.162174 -0.157545 0.000000 0.000000 0.000000 4.900465 -0.075722 0.251581 -2.240726 1.066104 -1.624594 -2.414251 1.497850 10.540288 3.712935 -0.701164 -20.291697 0.000000 0.000000 0.000000 -23.248889 -1.574556 -1.291966 -53.805531 -2.977643 -5.633800 -6.588963 -22.140815 2.182075 0.000000 0.000000 0.000000 20.605412 -2.173095 -2.862248 55.737235 1.518772 -5.313469 13.005560 32.620257 4.911723 0.000000 0.000000 0.000000 
-0.023882 0.948177 0.028462 -0.142861 -2.897347 1.391026 -0.045657 0.429353 4.502291 0.571786 -0.084545 0.505062 2.054581 4.117619 -0.828191 0.000000 0.000000 0.000000 1.462037 0.648993 -6.177408 -0.132767 0.457114 9.831811 -2.191278 -5.154262 -0.854302 0.000000 0.000000 0.000000 5.373366 -0.074620 0.113013 -2.537343 1.205699 -1.060303 -2.488093 0.997581 10.064439 3.276884 -0.515712 -20.352265 0.000000 0.000000 0.000000 -23.564871 -1.274793 -1.304061 -53.813451 -2.841464 -5.691406 -6.636106 -22.462867 2.251263 0.000000 0.000000 0.000000 20.219515 -1.918930 -2.866642 56.291328 1.876678 -5.122142 12.422850 33.522762 4.825107 0.000000 0.000000 0.000000 
-0.033629 0.947313 0.038958 0.012106 -3.259895 1.244702 0.128060 0.382342 4.080302 0.683771 -0.179476 2.650540 2.413499 4.929785 -0.743284 0.000000 0.000000 0.000000 2.125207 0.584732 -5.522096 -0.538501 0.554434 10.142104 -1.978234 -4.324618 -1.440097 0.000000 0.000000 0.000000 5.679792 -0.165876 1.120980 -2.351378 1.117064 -1.167525 -2.605918 1.269267 9.516558 2.951533 -0.339564 -20.001104 0.000000 0.000000 0.000000 -22.961133 -2.227745 -0.750543 -53.664737 -3.060083 -5.523344 -7.264812 -22.571039 2.370826 0.000000 0.000000 0.000000 19.962620 -2.103792 -2.924423 57.212855 2.492777 -4.865939 12.100113 34.328289 4.866697 0.000000 0.000000 0.000000 
-0.043565 0.946554 0.050357 0.127266 -2.817437 1.358790 0.763596 0.184580 2.209456 0.818143 -0.359761 6.933556 2.639875 5.075823 -1.775617 0.000000 0.000000 0.000000 2.202580 0.508797 -4.869041 0.213045 0.405193 10.137833 -2.010962 -4.127928 -2.069944 0.000000 0.000000 0.000000 5.650318 -0.183935 1.289258 -1.924676 0.920912 -0.371918 -2.687424 0.480487 8.665955 2.200596 0.025029 -19.778592 0.000000 0.000000 0.000000 -21.788341 -1.005973 -1.245729 -53.977217 -3.091237 -5.480398 -7.815119 -22.680240 2.506788 0.000000 0.000000 0.000000 18.734933 -1.790439 -2.752442 58.819968 2.938384 -4.682276 10.394003 34.512744 4.318770 0.000000 0.000000 0.000000 
-0.053091 0.947095 0.062445 0.068198 -3.622973 1.996568 1.733684 -0.135334 -1.491579 -0.168475 -0.324161 13.048716 3.344278 6.803534 -1.203781 0.000000 0.000000 0.000000 2.681002 0.546789 -5.200939 0.136356 0.442891 10.385809 -1.639711 -2.687822 -2.873626 0.000000 0.000000 0.000000 6.414152 -0.210834 1.272731 -1.698356 0.808233 -1.858233 -2.993658 1.336109 9.714611 1.601057 0.470683 -20.520046 0.000000 0.000000 0.000000 -21.296196 0.543751 -2.159672 -53.710507 -1.801084 -6.080058 -8.900545 -24.967775 3.017260 0.000000 0.000000 0.000000 17.041851 -1.951473 -2.501684 60.274170 3.408183 -4.669578 10.598420 34.262344 4.428121 0.000000 0.000000 0.000000 
-0.061615 0.946804 0.075707 0.405200 -3.831707 0.824226 1.707575 -0.379310 -4.762044 -1.295949 -0.127607 22.987774 3.929357 7.747052 -2.424741 0.000000 0.000000 0.000000 3.068167 0.264155 -2.876673 -0.253005 0.476537 9.550759 -1.486470 -1.342026 -4.447550 0.000000 0.000000 0.000000 6.369013 -0.377137 3.314339 -2.302484 1.077451 -3.033573 -1.900277 2.459447 10.855189 1.894006 0.466422 -21.430111 0.000000 0.000000 0.000000 -20.254257 -0.767742 -1.498695 -54.286106 -1.789321 -6.238970 -9.380027 -26.561898 3.304877 0.000000 0.000000 0.000000 16.268279 -3.028365 -2.763380 60.383092 2.513003 -5.256246 12.999706 36.834515 5.730419 0.000000 0.000000 0.000000 
-0.069430 0.946305 0.090144 0.211877 -4.080588 0.481353 1.379320 -0.633328 -7.956177 -0.941817 -0.251595 29.513000 3.269341 6.269170 -2.429907 0.000000 0.000000 0.000000 4.068111 -0.034590 -0.663104 -0.975712 0.521305 7.992732 -1.313152 -0.461263 -5.026050 0.000000 0.000000 0.000000 6.611868 -0.489832 4.490117 -2.039853 0.954465 -3.731639 -2.209423 3.565187 11.389495 3.531904 -0.428662 -20.520560 0.000000 0.000000 0.000000 -19.770862 0.152512 -2.203488 -54.615675 -1.696717 -6.329189 -9.404684 -27.767876 3.414874 0.000000 0.000000 0.000000 16.557109 -3.216669 -2.665281 60.842503 2.404540 -5.392658 10.849982 37.075586 5.225389 0.000000 0.000000 0.000000 
-0.076874 0.944631 0.105316 0.484334 -4.610187 0.917495 -0.390653 -1.084277 -11.788067 0.730553 -0.902441 33.809093 3.365235 6.408882 -2.707141 0.000000 0.000000 0.000000 3.686843 -0.142066 0.179326 -0.410589 0.463022 8.611357 -1.106323 0.927935 -6.110375 0.000000 0.000000 0.000000 6.199072 -0.462900 4.321698 -1.915986 0.903512 -2.064762 -2.219482 4.656709 10.107457 3.199780 -0.249369 -19.164020 0.000000 0.000000 0.000000 -18.863483 0.030054 -2.282019 -55.232477 -0.904433 -6.620928 -9.077250 -28.835709 3.383081 0.000000 0.000000 0.000000 17.160722 -3.247816 -2.592584 60.246340 1.126982 -5.856626 10.450439 38.700571 5.424940 0.000000 0.000000 0.000000 
-0.083743 0.943464 0.122216 -0.183949 -6.362096 1.673585 0.122374 -1.396958 -16.804303 0.502144 -0.540720 39.722821 4.117854 8.642262 -0.188588 0.000000 0.000000 0.000000 4.976980 -0.282620 0.752791 -1.553804 0.694908 8.929851 -0.963266 2.437315 -7.250778 0.000000 0.000000 0.000000 7.200322 -0.489964 4.032702 -2.730024 1.280951 -1.292160 -1.637241 6.515075 9.570153 2.950317 0.166654 -20.635607 0.000000 0.000000 0.000000 -19.166968 1.061813 -3.116225 -54.487633 0.448160 -7.029506 -10.372178 -30.422590 3.838045 0.000000 0.000000 0.000000 16.239016 -3.982639 -2.720732 59.739486 0.038891 -6.260529 13.604759 39.960641 6.864661 0.000000 0.000000 0.000000 
-0.089695 0.941560 0.142456 -0.282172 -6.274172 1.150057 0.522844 -1.609257 -20.798847 0.032124 -0.310281 43.119879 4.425706 9.577600 1.546553 0.000000 0.000000 0.000000 4.888662 -0.542105 2.747681 -1.418688 0.658607 8.756938 -0.452726 4.342556 -7.670634 0.000000 0.000000 0.000000 6.663609 -0.608411 5.665257 -2.148533 1.000916 -1.982428 -0.985911 7.510873 9.743992 3.273976 0.184939 -21.457329 0.000000 0.000000 0.000000 -20.288583 1.169826 -3.602146 -53.947742 2.675653 -7.871815 -11.509105 -30.927972 4.134557 0.000000 0.000000 0.000000 16.062137 -4.969758 -3.041158 58.187498 -0.420341 -6.314877 16.686151 41.911601 8.575009 0.000000 0.000000 0.000000 
-0.095119 0.938938 0.166689 0.123519 -6.689116 0.886205 -0.041803 -1.996389 -25.310100 -1.189436 0.383796 42.678467 3.859912 8.071195 -0.035717 0.000000 0.000000 0.000000 5.051648 -0.882355 5.251458 -2.101476 0.734974 8.154691 0.118075 5.746663 -7.208810 0.000000 0.000000 0.000000 6.343390 -0.692596 6.910844 -2.277347 1.041443 -3.075662 -0.621821 8.416007 10.332551 3.387064 0.182906 -21.322334 0.000000 0.000000 0.000000 -21.092002 3.539772 -5.191595 -52.226156 5.874082 -8.921382 -15.295651 -32.869049 5.462719 0.000000 0.000000 0.000000 14.606385 -4.885881 -2.755565 58.545071 -1.333417 -6.775891 17.407972 44.285448 9.590903 0.000000 0.000000 0.000000 
-0.100639 0.935926 0.194777 0.567192 -8.095479 0.420270 -0.353802 -2.148778 -28.045050 -2.928432 1.236257 36.332843 3.651177 7.668842 0.262450 0.000000 0.000000 0.000000 4.511361 -1.117070 7.606472 -2.863408 0.864144 8.100905 0.663810 7.813405 -7.442111 0.000000 0.000000 0.000000 5.531182 -0.699452 7.912161 -2.323840 1.061965 -2.499603 -0.383132 10.475830 9.877369 3.315390 0.388657 -21.243287 0.000000 0.000000 0.000000 -21.172817 3.262526 -5.425916 -52.617504 9.299015 -10.367001 -15.961154 -34.096010 5.731275 0.000000 0.000000 0.000000 15.198672 -5.106570 -2.693338 57.395639 -2.222979 -7.034686 21.174422 47.805723 12.459120 0.000000 0.000000 0.000000 
-0.106509 0.930846 0.226893 0.601622 -9.756492 0.220883 -0.473599 -2.157315 -30.054569 -3.116264 1.061335 27.558776 2.912330 7.011270 4.591410 0.000000 0.000000 0.000000 4.409724 -1.375634 10.158977 -3.491361 0.935531 7.690286 1.463214 10.007178 -7.039138 0.000000 0.000000 0.000000 5.479521 -0.755371 8.950041 -3.128623 1.419727 -2.462287 0.023519 11.759229 9.682502 2.739495 0.749078 -21.068089 0.000000 0.000000 0.000000 -21.080743 4.314294 -6.075256 -52.558472 12.367598 -11.644823 -17.372304 -35.392030 6.360417 0.000000 0.000000 0.000000 14.921651 -5.292972 -2.714192 57.087122 -2.586375 -7.133499 25.243776 51.998633 15.980793 0.000000 0.000000 0.000000 
